<svg xmlns="http://www.w3.org/2000/svg" width="50" height="46" viewBox="7 10 50 46">
  <g stroke="#0a1c3a" stroke-width="2.6" stroke-linecap="round" fill="none"><path d="M15.5 30L9 27.5"/><path d="M48.5 30L55 27.5"/></g>
  <path d="M32 12.5C45.5 12.5 53.5 22 53.5 33C53.5 45 44 53.5 32 53.5C20 53.5 10.5 45 10.5 33C10.5 22 18.5 12.5 32 12.5Z" fill="#3b82ff" stroke="#0a1c3a" stroke-width="2.6"/>
  <ellipse cx="25" cy="22" rx="8.5" ry="5" fill="#7fb0ff" opacity="0.6"/>
  <circle cx="24.5" cy="31" r="8.2" fill="#ffffff" stroke="#0a1c3a" stroke-width="2.7"/>
  <circle cx="40.5" cy="31" r="8.2" fill="#ffffff" stroke="#0a1c3a" stroke-width="2.7"/>
  <path d="M31.6 29.8Q32.5 28.4 33.4 29.8" fill="none" stroke="#0a1c3a" stroke-width="2.4"/>
  <circle cx="26" cy="32.4" r="3.2" fill="#0a1c3a"/><circle cx="42" cy="32.4" r="3.2" fill="#0a1c3a"/>
  <circle cx="24.6" cy="30.6" r="1.2" fill="#ffffff"/><circle cx="40.6" cy="30.6" r="1.2" fill="#ffffff"/>
  <path d="M26 42.5Q32 45 38 42.5Q36 49.5 32 49.5Q28 49.5 26 42.5Z" fill="#0a1c3a"/>
  <path d="M30.2 46Q32 48.6 33.8 46Z" fill="#ff6b8a"/>
</svg>
